<svg xmlns="http://www.w3.org/2000/svg" width="13.117" height="14.218" viewBox="0 0 13.117 14.218">
  <g id="delete-white" transform="translate(0.5 0.5)">
    <path id="Stroke_1" data-name="Stroke 1" d="M10.14,0s-.388,4.812-.613,6.84A1.6,1.6,0,0,1,7.842,8.393c-1.864.034-3.731.036-5.594,0A1.582,1.582,0,0,1,.612,6.845C.386,4.8,0,0,0,0" transform="translate(0.989 4.8)" fill="none" stroke="#fff" stroke-linecap="round" stroke-linejoin="round" stroke-miterlimit="10" stroke-width="1"/>
    <path id="Stroke_3" data-name="Stroke 3" d="M12.117.5H0" transform="translate(0 1.993)" fill="none" stroke="#fff" stroke-linecap="round" stroke-linejoin="round" stroke-miterlimit="10" stroke-width="1"/>
    <path id="Stroke_5" data-name="Stroke 5" d="M7.448,2.493a1.178,1.178,0,0,1-1.154-.946L6.12.678A.914.914,0,0,0,5.236,0H2.212a.914.914,0,0,0-.884.678l-.174.869A1.178,1.178,0,0,1,0,2.493" transform="translate(2.335)" fill="none" stroke="#fff" stroke-linecap="round" stroke-linejoin="round" stroke-miterlimit="10" stroke-width="1"/>
  </g>
</svg>
