<svg xmlns="http://www.w3.org/2000/svg" width="59.45" height="55.737" viewBox="0 0 59.45 55.737">
  <g id="excel" transform="translate(0 -15.989)">
    <path id="Path_5357" data-name="Path 5357" d="M283.867,120.883h-26.01A1.859,1.859,0,0,1,256,119.025V81.869a1.859,1.859,0,0,1,1.858-1.858h26.01a1.859,1.859,0,0,1,1.858,1.858v37.156A1.859,1.859,0,0,1,283.867,120.883Z" transform="translate(-226.275 -56.588)" fill="#eceff1"/>
    <g id="Group_11665" data-name="Group 11665" transform="translate(29.725 30.855)">
      <path id="Path_5358" data-name="Path 5358" d="M265.289,147.727h-7.431a1.858,1.858,0,0,1,0-3.716h7.431a1.858,1.858,0,1,1,0,3.716Z" transform="translate(-256 -144.011)" fill="#388e3c"/>
      <path id="Path_5359" data-name="Path 5359" d="M265.289,211.727h-7.431a1.858,1.858,0,1,1,0-3.716h7.431a1.858,1.858,0,1,1,0,3.716Z" transform="translate(-256 -200.58)" fill="#388e3c"/>
      <path id="Path_5360" data-name="Path 5360" d="M265.289,275.727h-7.431a1.858,1.858,0,1,1,0-3.716h7.431a1.858,1.858,0,1,1,0,3.716Z" transform="translate(-256 -257.148)" fill="#388e3c"/>
      <path id="Path_5361" data-name="Path 5361" d="M265.289,339.727h-7.431a1.858,1.858,0,1,1,0-3.716h7.431a1.858,1.858,0,1,1,0,3.716Z" transform="translate(-256 -313.717)" fill="#388e3c"/>
      <path id="Path_5362" data-name="Path 5362" d="M389.573,147.727h-3.716a1.858,1.858,0,1,1,0-3.716h3.716a1.858,1.858,0,0,1,0,3.716Z" transform="translate(-369.137 -144.011)" fill="#388e3c"/>
      <path id="Path_5363" data-name="Path 5363" d="M389.573,211.727h-3.716a1.858,1.858,0,1,1,0-3.716h3.716a1.858,1.858,0,0,1,0,3.716Z" transform="translate(-369.137 -200.58)" fill="#388e3c"/>
      <path id="Path_5364" data-name="Path 5364" d="M389.573,275.727h-3.716a1.858,1.858,0,1,1,0-3.716h3.716a1.858,1.858,0,1,1,0,3.716Z" transform="translate(-369.137 -257.148)" fill="#388e3c"/>
      <path id="Path_5365" data-name="Path 5365" d="M389.573,339.727h-3.716a1.858,1.858,0,1,1,0-3.716h3.716a1.858,1.858,0,0,1,0,3.716Z" transform="translate(-369.137 -313.717)" fill="#388e3c"/>
    </g>
    <path id="Path_5366" data-name="Path 5366" d="M32.768,16.419a1.826,1.826,0,0,0-1.527-.394L1.516,21.6A1.853,1.853,0,0,0,0,23.423V64.3A1.856,1.856,0,0,0,1.516,66.12l29.725,5.573a1.748,1.748,0,0,0,.342.033,1.858,1.858,0,0,0,1.858-1.858V17.85A1.853,1.853,0,0,0,32.768,16.419Z" transform="translate(0 0)" fill="#2e7d32"/>
    <path id="Path_5367" data-name="Path 5367" d="M96.245,177.38l-5.874-6.714,5.941-7.639a1.859,1.859,0,0,0-2.932-2.285l-5.5,7.075-4.637-5.3a1.856,1.856,0,1,0-2.794,2.445l5.109,5.841-5.18,6.658a1.859,1.859,0,0,0,2.935,2.281l4.737-6.094,5.4,6.172a1.855,1.855,0,1,0,2.794-2.441Z" transform="translate(-70.696 -127.312)" fill="#fafafa"/>
  </g>
</svg>
