<svg id="Group_10776" data-name="Group 10776" xmlns="http://www.w3.org/2000/svg" width="20.304" height="15.254" viewBox="0 0 20.304 15.254">
  <g id="icon_64_">
    <path id="Path_3820" data-name="Path 3820" d="M83.881,572.786h17.243a1.185,1.185,0,0,0,0-2.36H83.881a1.185,1.185,0,0,0,0,2.36Z" transform="translate(-82.803 -570.426)" fill="#fff"></path>
    <path id="Path_3821" data-name="Path 3821" d="M83.881,585.174h17.243a1.185,1.185,0,0,0,0-2.36H83.881a1.185,1.185,0,0,0,0,2.36Z" transform="translate(-82.803 -576.772)" fill="#fff"></path>
    <path id="Path_3822" data-name="Path 3822" d="M83.983,597.561H96.547a1.18,1.18,0,1,0,0-2.36H83.983a1.18,1.18,0,1,0,0,2.36Z" transform="translate(-78.329 -583.117)" fill="#fff"></path>
  </g>
  <path id="Path_3823" data-name="Path 3823" d="M99.54,574.2H82.3a1.185,1.185,0,0,1,0-2.36H99.54a1.185,1.185,0,0,1,0,2.36Z" transform="translate(-80.314 -571.033)" fill="#fff" opacity="0.2"></path>
  <path id="Path_3824" data-name="Path 3824" d="M99.54,586.59H82.3a1.185,1.185,0,0,1,0-2.36H99.54a1.185,1.185,0,0,1,0,2.36Z" transform="translate(-80.314 -577.434)" fill="#fff" opacity="0.2"></path>
  <path id="Path_3825" data-name="Path 3825" d="M94.963,598.978H82.4a1.18,1.18,0,1,1,0-2.36H94.963a1.18,1.18,0,1,1,0,2.36Z" transform="translate(-75.84 -583.724)" fill="#fff" opacity="0.2"></path>
</svg>