<svg xmlns="http://www.w3.org/2000/svg" xmlns:xlink="http://www.w3.org/1999/xlink" width="46.432" height="59.433" viewBox="0 0 46.432 59.433">
  <defs>
    <linearGradient id="linear-gradient" x1="0.5" y1="-0.5" x2="0.5" y2="-0.46" gradientUnits="objectBoundingBox">
      <stop offset="0" stop-color="#f3f7ff"/>
      <stop offset="0.99" stop-color="#b5d1ff"/>
    </linearGradient>
    <linearGradient id="linear-gradient-2" x1="0.5" y1="-0.17" x2="0.5" y2="20.658" gradientUnits="objectBoundingBox">
      <stop offset="0" stop-color="#ff5252"/>
      <stop offset="1" stop-color="#d50000"/>
    </linearGradient>
    <linearGradient id="linear-gradient-3" y1="-0.085" y2="2.406" xlink:href="#linear-gradient"/>
    <linearGradient id="linear-gradient-4" y1="-2.145" y2="-0.366" xlink:href="#linear-gradient"/>
    <linearGradient id="linear-gradient-5" y1="-0.123" y2="2.825" xlink:href="#linear-gradient-2"/>
    <linearGradient id="linear-gradient-6" y1="-4.203" y2="3.531" xlink:href="#linear-gradient-2"/>
  </defs>
  <g id="pdf" transform="translate(-7)">
    <path id="Path_5328" data-name="Path 5328" d="M52.86,59.433H12.929A.929.929,0,0,1,12,58.5V.929A.929.929,0,0,1,12.929,0H43.26a.929.929,0,0,1,.656.272l9.6,9.6a.929.929,0,0,1,.272.657V58.5A.929.929,0,0,1,52.86,59.433Z" transform="translate(-0.357)" fill="url(#linear-gradient)"/>
    <path id="Path_5329" data-name="Path 5329" d="M7,32.82l3.715-1.641,2.593,3.979H7Z" transform="translate(0 -2.225)" fill="url(#linear-gradient-2)"/>
    <path id="Path_5330" data-name="Path 5330" d="M51.86,59.433H11.929A.929.929,0,0,1,11,58.5V.929A.929.929,0,0,1,11.929,0H42.644L52.789,10.144V58.5A.929.929,0,0,1,51.86,59.433Z" transform="translate(-0.285)" fill="url(#linear-gradient-3)"/>
    <path id="Path_5331" data-name="Path 5331" d="M45.076,0V9.216a.929.929,0,0,0,.929.929H55.22L50.67,4.665Z" transform="translate(-2.717)" fill="url(#linear-gradient-4)"/>
    <path id="Path_5332" data-name="Path 5332" d="M43.237,51.231H8.644A1.643,1.643,0,0,1,7,49.587V34.714H43.237a1.645,1.645,0,0,1,1.644,1.644V49.587A1.644,1.644,0,0,1,43.237,51.231Z" transform="translate(0 -2.477)" fill="url(#linear-gradient-5)"/>
    <path id="Path_5333" data-name="Path 5333" d="M10.715,31.179H8.642a1.641,1.641,0,1,0,0,3.283h2.073Z" transform="translate(0 -2.225)" fill="url(#linear-gradient-6)"/>
    <g id="Group_11601" data-name="Group 11601" transform="translate(14.429 36.475)">
      <path id="Path_5334" data-name="Path 5334" d="M15,46.482V40.118a.806.806,0,0,1,.806-.807,26.115,26.115,0,0,1,3.693.12,2.244,2.244,0,0,1,1.611,2.335,2.3,2.3,0,0,1-1.779,2.4,16.942,16.942,0,0,1-2.462.114.259.259,0,0,0-.259.259v1.945a.805.805,0,1,1-1.61,0Zm1.61-5.563v1.745a.259.259,0,0,0,.259.259,7.063,7.063,0,0,0,1.9-.125,1.088,1.088,0,0,0-.217-2.084,15.754,15.754,0,0,0-1.678-.055.259.259,0,0,0-.258.26Z" transform="translate(-15 -39.278)" fill="#fff"/>
      <path id="Path_5335" data-name="Path 5335" d="M23,40.117a.806.806,0,0,1,.806-.807,18.091,18.091,0,0,1,3.655.152,3.01,3.01,0,0,1,1.965,2.027,5.9,5.9,0,0,1,.261,1.885,5.233,5.233,0,0,1-.245,1.7,2.909,2.909,0,0,1-1.986,2.043,19.392,19.392,0,0,1-3.65.169.806.806,0,0,1-.806-.8Zm1.61.8v4.765a.259.259,0,0,0,.259.259,10.139,10.139,0,0,0,1.918-.076,1.377,1.377,0,0,0,1.072-1.1,5.208,5.208,0,0,0,.163-1.461,4.767,4.767,0,0,0-.163-1.42,1.545,1.545,0,0,0-1.207-1.149,13.352,13.352,0,0,0-1.787-.076.259.259,0,0,0-.255.26Z" transform="translate(-15.571 -39.277)" fill="#fff"/>
      <path id="Path_5336" data-name="Path 5336" d="M31.682,46.484V40.119a.807.807,0,0,1,.807-.807h3.987a.675.675,0,1,1,0,1.349h-2.92a.259.259,0,0,0-.259.26V42.29a.259.259,0,0,0,.259.26h2.4a.675.675,0,1,1,0,1.349h-2.4a.259.259,0,0,0-.259.259V46.48a.807.807,0,0,1-1.615,0Z" transform="translate(-16.19 -39.28)" fill="#fff"/>
    </g>
  </g>
</svg>
