<svg id="remove" xmlns="http://www.w3.org/2000/svg" width="13.741" height="13.741" viewBox="0 0 13.741 13.741">
  <path id="Path_5353" data-name="Path 5353" d="M6.871,0a6.871,6.871,0,1,0,6.871,6.871A6.878,6.878,0,0,0,6.871,0Zm0,0" fill="#f44336"/>
  <path id="Path_5354" data-name="Path 5354" d="M160.7,159.89a.573.573,0,1,1-.81.81l-1.72-1.721-1.72,1.721a.573.573,0,1,1-.81-.81l1.721-1.72-1.721-1.72a.573.573,0,0,1,.81-.81l1.72,1.721,1.72-1.721a.573.573,0,0,1,.81.81l-1.721,1.72Zm0,0" transform="translate(-151.299 -151.299)" fill="#fafafa"/>
</svg>
