<svg xmlns="http://www.w3.org/2000/svg" width="13.68" height="13.461" viewBox="0 0 13.68 13.461">
  <g id="Work" transform="translate(0.502 0.5)">
    <path id="Stroke_1" data-name="Stroke 1" d="M0,0S.1,1.188.12,1.562A2.613,2.613,0,0,0,.668,3.015a2.028,2.028,0,0,0,1.715.748c.845,0,6.992,0,7.837,0a2.028,2.028,0,0,0,1.715-.748,2.618,2.618,0,0,0,.549-1.453C12.5,1.188,12.6,0,12.6,0" transform="translate(0.037 8.697)" fill="none" stroke="#01003c" stroke-linecap="round" stroke-linejoin="round" stroke-miterlimit="10" stroke-width="1"/>
    <path id="Stroke_3" data-name="Stroke 3" d="M0,1.762V1.509A1.508,1.508,0,0,1,1.509,0H3.273A1.509,1.509,0,0,1,4.782,1.509v.254" transform="translate(3.927 0)" fill="none" stroke="#01003c" stroke-linecap="round" stroke-linejoin="round" stroke-miterlimit="10" stroke-width="1"/>
    <path id="Stroke_5" data-name="Stroke 5" d="M.5.884V0" transform="translate(5.818 8.633)" fill="none" stroke="#01003c" stroke-linecap="round" stroke-linejoin="round" stroke-miterlimit="10" stroke-width="1"/>
    <path id="Stroke_7" data-name="Stroke 7" d="M0,2.09V4.459a11.157,11.157,0,0,0,4.6,1.71,1.763,1.763,0,0,1,3.407.007,11.156,11.156,0,0,0,4.624-1.717V2.09A2.085,2.085,0,0,0,10.546,0H2.1A2.09,2.09,0,0,0,0,2.09Z" transform="translate(0 1.763)" fill="none" stroke="#01003c" stroke-linecap="round" stroke-linejoin="round" stroke-miterlimit="10" stroke-width="1"/>
  </g>
</svg>
