<svg xmlns="http://www.w3.org/2000/svg" xmlns:xlink="http://www.w3.org/1999/xlink" width="12.001" height="14.4" viewBox="0 0 12.001 14.4">
  <defs>
    <clipPath id="clip-path">
      <rect width="12.001" height="14.4" fill="none"/>
    </clipPath>
    <clipPath id="clip-path-2">
      <path id="Combined_Shape" data-name="Combined Shape" d="M2,14.4a1.984,1.984,0,0,1-2-1.964V1.964A1.984,1.984,0,0,1,2,0H7.334a.672.672,0,0,1,.382.118h0l.006,0a.654.654,0,0,1,.082.068l4,3.928a.648.648,0,0,1,.069.08l0,.006h0a.644.644,0,0,1,.121.36q0,.008,0,.016v7.855A1.984,1.984,0,0,1,10,14.4ZM1.333,1.964V12.437A.661.661,0,0,0,2,13.091h8a.661.661,0,0,0,.667-.655v-7.2H7.334a.661.661,0,0,1-.667-.655V1.309H2A.661.661,0,0,0,1.333,1.964ZM8,3.928H9.725L8,2.235Zm-4.666,7.2a.655.655,0,1,1,0-1.309H8.667a.655.655,0,1,1,0,1.309Zm0-2.619a.655.655,0,1,1,0-1.309H8.667a.655.655,0,1,1,0,1.309Zm0-2.618a.655.655,0,1,1,0-1.309H4.667a.655.655,0,1,1,0,1.309Z" fill="#fff"/>
    </clipPath>
    <clipPath id="clip-path-3">
      <rect width="16.001" height="15.71" fill="none"/>
    </clipPath>
  </defs>
  <g id="file-text" clip-path="url(#clip-path)">
    <path id="Combined_Shape-2" data-name="Combined Shape" d="M2,14.4a1.984,1.984,0,0,1-2-1.964V1.964A1.984,1.984,0,0,1,2,0H7.334a.672.672,0,0,1,.382.118h0l.006,0a.654.654,0,0,1,.082.068l4,3.928a.648.648,0,0,1,.069.08l0,.006h0a.644.644,0,0,1,.121.36q0,.008,0,.016v7.855A1.984,1.984,0,0,1,10,14.4ZM1.333,1.964V12.437A.661.661,0,0,0,2,13.091h8a.661.661,0,0,0,.667-.655v-7.2H7.334a.661.661,0,0,1-.667-.655V1.309H2A.661.661,0,0,0,1.333,1.964ZM8,3.928H9.725L8,2.235Zm-4.666,7.2a.655.655,0,1,1,0-1.309H8.667a.655.655,0,1,1,0,1.309Zm0-2.619a.655.655,0,1,1,0-1.309H8.667a.655.655,0,1,1,0,1.309Zm0-2.618a.655.655,0,1,1,0-1.309H4.667a.655.655,0,1,1,0,1.309Z" fill="#fff"/>
    <g clip-path="url(#clip-path-2)">
      <g id="_Color" data-name="🎨Color" transform="translate(-2 -0.655)" clip-path="url(#clip-path-3)">
        <rect id="Rectangle" width="16.001" height="15.71" fill="#fff"/>
      </g>
    </g>
  </g>
</svg>
