<svg xmlns="http://www.w3.org/2000/svg" width="14.376" height="12.904" viewBox="0 0 14.376 12.904">
  <g id="message" transform="translate(-1.5 -3)">
    <g id="Message-2" data-name="Message" transform="translate(2 3.5)">
      <path id="Path_445" d="M7.869,0,4.9,2.389a1.546,1.546,0,0,1-1.91,0L0,0" transform="translate(2.75 3.868)" fill="none" stroke="#fff" stroke-linecap="round" stroke-linejoin="round" stroke-miterlimit="10" stroke-width="1"/>
      <path id="Rectangle_511" d="M3.4,0H9.957a3.448,3.448,0,0,1,2.49,1.106,3.489,3.489,0,0,1,.922,2.576v4.54a3.489,3.489,0,0,1-.922,2.576A3.448,3.448,0,0,1,9.957,11.9H3.4A3.455,3.455,0,0,1,0,8.222V3.682A3.455,3.455,0,0,1,3.4,0Z" transform="translate(0 0)" fill="none" stroke="#fff" stroke-linecap="round" stroke-linejoin="round" stroke-miterlimit="10" stroke-width="1"/>
    </g>
  </g>
</svg>
