<svg xmlns="http://www.w3.org/2000/svg" width="13.048" height="13.841" viewBox="0 0 13.048 13.841">
  <g id="setting" transform="translate(-2.693 -1.778)">
    <g id="Setting-2" data-name="Setting" transform="translate(3.279 2.278)">
      <path id="Path_33946" d="M11.71,3.571l-.416-.722a1.278,1.278,0,0,0-1.743-.471h0a1.272,1.272,0,0,1-1.743-.453,1.223,1.223,0,0,1-.171-.611h0A1.278,1.278,0,0,0,6.359,0H5.521A1.272,1.272,0,0,0,4.25,1.278h0a1.278,1.278,0,0,1-1.278,1.26,1.223,1.223,0,0,1-.611-.171h0a1.278,1.278,0,0,0-1.743.471l-.446.734A1.278,1.278,0,0,0,.636,5.314h0a1.278,1.278,0,0,1,.639,1.107A1.278,1.278,0,0,1,.636,7.527h0A1.272,1.272,0,0,0,.171,9.264h0l.422.728a1.278,1.278,0,0,0,1.743.5h0a1.266,1.266,0,0,1,1.737.465,1.223,1.223,0,0,1,.171.611h0a1.278,1.278,0,0,0,1.278,1.278h.838a1.278,1.278,0,0,0,1.278-1.272h0a1.272,1.272,0,0,1,1.278-1.278,1.3,1.3,0,0,1,.611.171h0A1.278,1.278,0,0,0,11.269,10h0l.44-.734a1.272,1.272,0,0,0-.465-1.743h0a1.272,1.272,0,0,1-.465-1.743,1.254,1.254,0,0,1,.465-.465h0a1.278,1.278,0,0,0,.465-1.737h0Z" transform="translate(0 0)" fill="none" stroke="#fff" stroke-linecap="round" stroke-linejoin="round" stroke-miterlimit="10" stroke-width="1"/>
      <circle id="Ellipse_737" cx="1.761" cy="1.761" r="1.761" transform="translate(4.182 4.66)" fill="none" stroke="#fff" stroke-linecap="round" stroke-linejoin="round" stroke-miterlimit="10" stroke-width="1"/>
    </g>
  </g>
</svg>
