<svg xmlns="http://www.w3.org/2000/svg" xmlns:xlink="http://www.w3.org/1999/xlink" width="14" height="11" viewBox="0 0 14 11">
  <defs>
    <clipPath id="clip-path">
      <path id="Combined_Shape" data-name="Combined Shape" d="M13.417,11a.568.568,0,0,1-.584-.55v-1.1a1.67,1.67,0,0,0-1.312-1.6.549.549,0,0,1-.419-.67.579.579,0,0,1,.565-.413.619.619,0,0,1,.146.018A2.785,2.785,0,0,1,14,9.35v1.1A.568.568,0,0,1,13.417,11Zm-3.5,0a.568.568,0,0,1-.583-.55V9.35A1.7,1.7,0,0,0,7.583,7.7H2.917a1.7,1.7,0,0,0-1.75,1.65v1.1A.568.568,0,0,1,.583,11,.568.568,0,0,1,0,10.45V9.35A2.84,2.84,0,0,1,2.917,6.6H7.583A2.84,2.84,0,0,1,10.5,9.35v1.1A.568.568,0,0,1,9.917,11ZM5.25,5.5A2.84,2.84,0,0,1,2.333,2.75,2.84,2.84,0,0,1,5.25,0,2.84,2.84,0,0,1,8.167,2.75,2.84,2.84,0,0,1,5.25,5.5Zm0-4.4A1.7,1.7,0,0,0,3.5,2.75,1.7,1.7,0,0,0,5.25,4.4,1.7,1.7,0,0,0,7,2.75,1.7,1.7,0,0,0,5.25,1.1ZM9.333,5.434a.578.578,0,0,1-.565-.414A.519.519,0,0,1,8.831,4.6a.577.577,0,0,1,.357-.253,1.669,1.669,0,0,0,1.316-1.6,1.67,1.67,0,0,0-1.316-1.6A.577.577,0,0,1,8.831.9.52.52,0,0,1,8.768.485.578.578,0,0,1,9.333.071a.619.619,0,0,1,.145.017,2.784,2.784,0,0,1,2.193,2.664A2.783,2.783,0,0,1,9.478,5.417.607.607,0,0,1,9.333,5.434Z" transform="translate(0.382 0.131)" fill="#fff"/>
    </clipPath>
  </defs>
  <g id="users" transform="translate(-0.382 -0.131)">
    <path id="Combined_Shape-2" data-name="Combined Shape" d="M13.417,11a.568.568,0,0,1-.584-.55v-1.1a1.67,1.67,0,0,0-1.312-1.6.549.549,0,0,1-.419-.67.579.579,0,0,1,.565-.413.619.619,0,0,1,.146.018A2.785,2.785,0,0,1,14,9.35v1.1A.568.568,0,0,1,13.417,11Zm-3.5,0a.568.568,0,0,1-.583-.55V9.35A1.7,1.7,0,0,0,7.583,7.7H2.917a1.7,1.7,0,0,0-1.75,1.65v1.1A.568.568,0,0,1,.583,11,.568.568,0,0,1,0,10.45V9.35A2.84,2.84,0,0,1,2.917,6.6H7.583A2.84,2.84,0,0,1,10.5,9.35v1.1A.568.568,0,0,1,9.917,11ZM5.25,5.5A2.84,2.84,0,0,1,2.333,2.75,2.84,2.84,0,0,1,5.25,0,2.84,2.84,0,0,1,8.167,2.75,2.84,2.84,0,0,1,5.25,5.5Zm0-4.4A1.7,1.7,0,0,0,3.5,2.75,1.7,1.7,0,0,0,5.25,4.4,1.7,1.7,0,0,0,7,2.75,1.7,1.7,0,0,0,5.25,1.1ZM9.333,5.434a.578.578,0,0,1-.565-.414A.519.519,0,0,1,8.831,4.6a.577.577,0,0,1,.357-.253,1.669,1.669,0,0,0,1.316-1.6,1.67,1.67,0,0,0-1.316-1.6A.577.577,0,0,1,8.831.9.52.52,0,0,1,8.768.485.578.578,0,0,1,9.333.071a.619.619,0,0,1,.145.017,2.784,2.784,0,0,1,2.193,2.664A2.783,2.783,0,0,1,9.478,5.417.607.607,0,0,1,9.333,5.434Z" transform="translate(0.382 0.131)" fill="#fff"/>
    <g id="Group_11623" data-name="Group 11623" transform="translate(0 0)" clip-path="url(#clip-path)">
      <g id="_Color" data-name="🎨Color" transform="translate(0 -1.126)">
        <rect id="Rectangle" width="13.764" height="13.514" fill="#fff"/>
      </g>
    </g>
  </g>
</svg>
