<svg xmlns="http://www.w3.org/2000/svg" width="12.842" height="12.632" viewBox="0 0 12.842 12.632">
  <g id="work" transform="translate(-2.245 -2.25)">
    <g id="Work-2" data-name="Work" transform="translate(2.75 2.75)">
      <path id="Stroke_1" data-name="Stroke 1" d="M0,0S.091,1.109.112,1.458A2.439,2.439,0,0,0,.623,2.814a1.893,1.893,0,0,0,1.6.7c.789,0,6.527,0,7.316,0a1.893,1.893,0,0,0,1.6-.7,2.444,2.444,0,0,0,.512-1.356c.02-.35.111-1.458.111-1.458" transform="translate(0.035 8.118)" fill="none" stroke="#fff" stroke-linecap="round" stroke-linejoin="round" stroke-miterlimit="10" stroke-width="1"/>
      <path id="Stroke_3" data-name="Stroke 3" d="M0,1.645V1.408A1.408,1.408,0,0,1,1.408,0H3.056A1.408,1.408,0,0,1,4.464,1.408v.237" transform="translate(3.665 0)" fill="none" stroke="#fff" stroke-linecap="round" stroke-linejoin="round" stroke-miterlimit="10" stroke-width="1"/>
      <path id="Stroke_5" data-name="Stroke 5" d="M.5.825V0" transform="translate(5.397 8.059)" fill="none" stroke="#fff" stroke-linecap="round" stroke-linejoin="round" stroke-miterlimit="10" stroke-width="1"/>
      <path id="Stroke_7" data-name="Stroke 7" d="M0,1.951V4.162a10.415,10.415,0,0,0,4.3,1.6,1.646,1.646,0,0,1,3.18.006,10.414,10.414,0,0,0,4.317-1.6V1.951A1.946,1.946,0,0,0,9.845,0H1.956A1.951,1.951,0,0,0,0,1.951Z" transform="translate(0 1.646)" fill="none" stroke="#fff" stroke-linecap="round" stroke-linejoin="round" stroke-miterlimit="10" stroke-width="1"/>
    </g>
  </g>
</svg>
